<?xml version="1.0" encoding="UTF-8"?>
<svg version="1.1" xmlns="http://www.w3.org/2000/svg" width="530" height="530">
<path d="M0 0 C5.33851874 4.06239038 10.07573933 8.80084495 14.48828125 13.84375 C16.78100716 16.22607482 16.78100716 16.22607482 19.59375 16.26953125 C20.5528125 16.11871094 21.511875 15.96789062 22.5 15.8125 C44.09780218 13.28744481 65.59125064 14.18827447 83.45703125 27.87109375 C92.31007728 35.28262998 98.53023 45.36782029 100 57 C100.32718262 63.4231114 100.15076642 69.67078471 99 76 C100.19625 76.309375 101.3925 76.61875 102.625 76.9375 C115.44467842 81.17002875 127.51607175 90.58451703 134.26953125 102.1796875 C138.80529684 111.69998701 138.1938426 122.86364377 135.375 132.8125 C131.08893894 144.86704674 124.83183724 154.77877517 114 162 C114.99340005 164.49692446 115.99269422 166.9833087 117.0703125 169.4453125 C121.26667726 180.1071874 121.96364564 193.02836852 118.5625 204.0625 C115.94213352 210.04659933 111.63374366 214.49342598 107 219 C106.44441406 219.57621094 105.88882812 220.15242187 105.31640625 220.74609375 C100.12500823 225.7303537 93.58764564 228.3187964 87 231 C86.22140625 231.32097656 85.4428125 231.64195312 84.640625 231.97265625 C76.51197574 234.84074349 67.6627787 235.07709832 59.13134766 235.75048828 C56.97195971 236.00328261 55.05161407 236.27055552 53 237 C51.28256752 239.88715199 51.28256752 239.88715199 49.8125 243.4375 C46.57879152 250.4084909 42.53341336 255.62109731 37 261 C36.06220703 261.96873047 36.06220703 261.96873047 35.10546875 262.95703125 C25.96919245 271.78555929 12.7725064 276.19185031 0.32324219 277.53393555 C-0.4865509 277.6218486 -1.29634399 277.70976166 -2.13067627 277.80033875 C-3.05599152 277.89917107 -3.05599152 277.89917107 -4 278 C-4.07711235 285.34245951 -4.12903697 292.68481178 -4.16479492 300.02758789 C-4.17972782 302.51688539 -4.20008147 305.00615731 -4.22631836 307.49536133 C-4.41367562 325.74983667 -3.92148347 343.38284035 1.625 360.9375 C1.87733398 361.7512207 2.12966797 362.56494141 2.38964844 363.40332031 C8.91416334 383.6285407 18.94852336 402.04119234 33 418 C33.79148437 418.92425781 34.58296875 419.84851563 35.3984375 420.80078125 C41.08733932 427.28828286 47.14328705 432.77583775 54 438 C54.56348145 438.433125 55.12696289 438.86625 55.70751953 439.3125 C66.49465729 447.5692491 77.57816579 454.89953224 89.80078125 460.86328125 C90.80423584 461.353125 91.80769043 461.84296875 92.84155273 462.34765625 C94.83788819 463.31168142 96.84123411 464.2613436 98.85180664 465.1953125 C99.76438232 465.63230469 100.67695801 466.06929688 101.6171875 466.51953125 C102.43815918 466.90214111 103.25913086 467.28475098 104.10498047 467.67895508 C106 469 106 469 106.89892578 470.9675293 C107 473 107 473 105 476 C101.423516 475.40689082 98.50834978 474.45103255 95.26171875 472.84765625 C94.36710937 472.40615234 93.4725 471.96464844 92.55078125 471.50976562 C91.60589844 471.03216797 90.66101563 470.55457031 89.6875 470.0625 C88.7078125 469.56814453 87.728125 469.07378906 86.71875 468.56445312 C67.71601991 458.83952655 51.43333026 446.68156346 36 432 C35.24460937 431.3090625 34.48921875 430.618125 33.7109375 429.90625 C6.06506833 403.76833733 -10.85557324 363.56923426 -12.33740234 325.74926758 C-12.4711562 319.4977248 -12.40043501 313.25164509 -12.3125 307 C-12.30096154 304.85157129 -12.29119051 302.70313235 -12.28320312 300.5546875 C-12.26980726 298.4947808 -12.25489221 296.43488328 -12.23828125 294.375 C-12.23089432 293.43333984 -12.22350739 292.49167969 -12.21589661 291.52148438 C-12.14441623 286.58600153 -11.82806828 281.86755787 -11 277 C-11.53625 276.98582031 -12.0725 276.97164063 -12.625 276.95703125 C-24.62283033 276.22690013 -35.99012817 271.97430024 -46.44921875 266.234375 C-49.12879924 264.93767142 -51.02520162 264.18564191 -54 264 C-57.12574995 265.04983053 -57.12574995 265.04983053 -60.375 266.6875 C-69.2860013 270.77309657 -78.42866912 273.61648513 -88.23535156 274.54760742 C-89.57657074 274.67651619 -89.57657074 274.67651619 -90.94488525 274.80802917 C-91.96216705 274.90305473 -91.96216705 274.90305473 -93 275 C-92.97643433 276.86241333 -92.97643433 276.86241333 -92.95239258 278.76245117 C-92.33167179 332.67995024 -93.90913008 393.91974836 -131 437 C-131.58007812 437.67675781 -132.16015625 438.35351562 -132.7578125 439.05078125 C-146.53531049 453.93167194 -166.21440387 462.31422151 -186.33447266 463.13623047 C-202.8629802 463.4918485 -202.8629802 463.4918485 -210 463 C-211 462 -211 462 -211.0625 458.9375 C-211.0315625 457.4834375 -211.0315625 457.4834375 -211 456 C-209.09541016 456.03480469 -209.09541016 456.03480469 -207.15234375 456.0703125 C-181.41140832 456.407091 -158.7128886 452.54663243 -139.33984375 434.3671875 C-119.16956482 413.96119579 -110.38023011 384.89666682 -105.1875 357.375 C-104.992771 356.35317627 -104.79804199 355.33135254 -104.59741211 354.27856445 C-101.25706893 335.42055483 -100.56879795 316.28676647 -99.875 297.1875 C-99.78830319 294.9225052 -99.70106633 292.65753101 -99.61328125 290.39257812 C-99.4026564 284.92860616 -99.19858983 279.46442196 -99 274 C-99.61352325 274.00770416 -100.22704651 274.01540833 -100.85916138 274.02334595 C-102.06993851 274.03233414 -102.06993851 274.03233414 -103.30517578 274.04150391 C-104.10432404 274.04920807 -104.90347229 274.05691223 -105.72683716 274.06484985 C-119.59573929 273.66919132 -132.89824646 263.56887308 -142 254 C-147.71108727 247.17636326 -153 239.12938106 -153 230 C-154.68802734 229.87044922 -154.68802734 229.87044922 -156.41015625 229.73828125 C-175.33173047 228.0897715 -193.55796831 222.86636842 -206.90625 208.54296875 C-214.3364071 199.51865481 -217.05666378 189.6062586 -216 178 C-214.76505689 169.72588117 -211.89193792 163.51617129 -207.23046875 156.59375 C-205.7427275 154.1530325 -205.7427275 154.1530325 -206.47265625 151.9765625 C-208.51028184 149.33963526 -210.81841403 147.15378139 -213.25 144.875 C-220.6794268 137.69293782 -226.50152048 129.60970894 -227.30078125 119.01171875 C-227.32030047 117.57043938 -227.32371189 116.12886794 -227.3125 114.6875 C-227.30686035 113.933479 -227.3012207 113.17945801 -227.29541016 112.40258789 C-227.0841769 102.71409209 -224.34929082 96.30822262 -218 89 C-217.44699219 88.34128906 -216.89398438 87.68257813 -216.32421875 87.00390625 C-207.21454655 76.99692158 -193.62489793 71.20829931 -181 67 C-180.96132812 65.35064453 -180.96132812 65.35064453 -180.921875 63.66796875 C-180.50066543 51.27738729 -178.41632389 41.23016443 -171 31 C-170.58234375 30.40574219 -170.1646875 29.81148437 -169.734375 29.19921875 C-160.91510704 17.76965022 -145.93583562 12.24193199 -132.109375 10.24316406 C-120.9260221 8.95397199 -110.28334847 9.93501182 -99.35546875 12.44140625 C-96.00212082 12.99964694 -94.16567158 13.1740239 -91 12 C-88.50365464 9.9819413 -88.50365464 9.9819413 -86.0625 7.4375 C-62.70856661 -14.85070235 -27.00958334 -17.65072435 0 0 Z M-88 19 C-88.33 19.66 -88.66 20.32 -89 21 C-93.93582979 20.55930091 -98.6923006 19.87773906 -103.54443359 18.85546875 C-121.03131933 15.23369905 -138.66503482 15.77639285 -154.29296875 25.4140625 C-156.28957844 26.85841845 -158.14930468 28.37363139 -160 30 C-160.92425781 30.78503906 -160.92425781 30.78503906 -161.8671875 31.5859375 C-167.52571257 36.75875226 -172.74887257 44.5761875 -173.11352539 52.4519043 C-173.10828857 53.39976807 -173.10305176 54.34763184 -173.09765625 55.32421875 C-173.09443359 56.35224609 -173.09121094 57.38027344 -173.08789062 58.43945312 C-173.07951172 59.51130859 -173.07113281 60.58316406 -173.0625 61.6875 C-173.05798828 62.77095703 -173.05347656 63.85441406 -173.04882812 64.97070312 C-173.03703743 67.64719085 -173.02058063 70.32356777 -173 73 C-173.58225342 73.11899658 -174.16450684 73.23799316 -174.7644043 73.3605957 C-191.04622936 76.81066031 -206.67582782 84.64707973 -216.6640625 98.26953125 C-220.9082613 105.4182795 -221.26451867 112.8989223 -220 121 C-215.8500964 133.24414282 -207.84294895 143.07896875 -197 150 C-197.55538934 154.54409458 -199.37472837 157.45837928 -201.875 161.25 C-208.07572918 171.03346432 -211.00645569 179.97094939 -208.4140625 191.63671875 C-204.59526375 202.79531878 -195.36618013 210.91445868 -185 216 C-173.09112664 220.85078415 -160.70409066 222.51205006 -148 224 C-147.731875 225.02738281 -147.46375 226.05476562 -147.1875 227.11328125 C-142.45334607 244.25539954 -133.00095936 255.17904559 -117.4609375 264.02734375 C-103.65239988 269.48500386 -84.83229778 268.77617457 -71 264 C-67.22006971 262.33572805 -63.50111132 260.55223551 -59.85839844 258.60546875 C-56.6448022 256.94268196 -54.59566123 255.99394499 -50.92578125 256.03125 C-47.40768638 257.19611986 -44.3624478 258.88042698 -41.1875 260.75 C-25.10327534 269.64280687 -7.07310894 273.40976681 11 268.4375 C26.77737644 262.65246197 37.63492412 253.0926814 45 238 C46.05917919 235.35084977 47.03442877 232.68567568 48 230 C49.21562622 229.90295776 49.21562622 229.90295776 50.45581055 229.80395508 C53.53077452 229.54903919 56.60358457 229.27652408 59.67602539 228.99291992 C61.63249278 228.81743389 63.59067118 228.66136299 65.54882812 228.50585938 C80.31049127 227.11608447 95.11460315 222.00081408 105.46875 210.9140625 C112.33677995 202.32902506 114.70840952 193.94311093 113.54296875 183.09765625 C112.21565631 175.52529105 109.40302631 169.22496824 105 163 C104.25 160.625 104.25 160.625 104 159 C104.58136719 158.72414062 105.16273438 158.44828125 105.76171875 158.1640625 C117.45789041 152.08123675 125.01794023 142.00918056 129.109375 129.6484375 C131.29724018 120.68586696 131.38947509 111.28757977 126.60546875 103.20703125 C117.90499248 91.24652251 105.08231353 85.89576263 92 80 C92.0721875 79.24976562 92.144375 78.49953125 92.21875 77.7265625 C92.51258753 74.48618755 92.76462211 71.24512791 93 68 C93.06832031 67.15308594 93.13664062 66.30617188 93.20703125 65.43359375 C93.68060776 54.78689211 90.28310653 45.19173111 83.25 37.21484375 C70.89149987 25.04944518 55.50598002 21.80665637 38.71948242 21.74023438 C29.97328078 21.82767117 21.55458358 23.28295097 13 25 C12.5978125 24.12601563 12.5978125 24.12601563 12.1875 23.234375 C5.21370284 10.11262507 -10.00069995 1.0727551 -23.80078125 -3.16796875 C-48.63027963 -8.85384044 -70.84247371 1.43465475 -88 19 Z " fill="#BABBBB" transform="translate(327,42)"/>
<path d="M0 0 C1.65 0 3.3 0 5 0 C5.68408213 55.38258772 5.22505804 118.60241314 -33 163 C-33.58007812 163.67675781 -34.16015625 164.35351562 -34.7578125 165.05078125 C-48.53531049 179.93167194 -68.21440387 188.31422151 -88.33447266 189.13623047 C-104.8629802 189.4918485 -104.8629802 189.4918485 -112 189 C-113 188 -113 188 -113.0625 184.9375 C-113.041875 183.968125 -113.02125 182.99875 -113 182 C-111.09541016 182.03480469 -111.09541016 182.03480469 -109.15234375 182.0703125 C-83.41140832 182.407091 -60.7128886 178.54663243 -41.33984375 160.3671875 C-14.16513868 132.87491493 -6.15881398 89.78377083 -3.359375 52.7421875 C-3 49 -3 49 -2 48 C-0.84703801 37.2494598 -0.73026347 26.36367973 -0.4375 15.5625 C-0.39414016 14.04100819 -0.35052154 12.51952374 -0.30664062 10.99804688 C-0.20145978 7.3321107 -0.09972481 3.66608915 0 0 Z " fill="#C6C6C6" transform="translate(229,316)"/>
<path d="M0 0 C5.88434633 0.57243787 10.83044619 2.26533003 16.30078125 4.45703125 C17.17719772 4.80126633 18.0536142 5.1455014 18.95658875 5.50016785 C21.74473767 6.59721994 24.52861145 7.70468754 27.3125 8.8125 C29.17095285 9.54560951 31.02967456 10.27803786 32.88867188 11.00976562 C41.26983418 14.31308867 49.636681 17.65179122 58 21 C58 24.63 58 28.26 58 32 C50.86882131 34.83974879 43.7337669 37.66944555 36.5949707 40.48999023 C34.16810335 41.45046661 31.74230867 42.41365804 29.31762695 43.37963867 C25.82783497 44.76940416 22.334274 46.14928928 18.83984375 47.52734375 C17.22069313 48.1758152 17.22069313 48.1758152 15.5688324 48.83738708 C10.34267542 50.88753541 5.61044332 52.55185933 0 53 C0 49.7 0 46.4 0 43 C9.00011932 39.16790151 18.09705348 35.632145 27.25 32.1875 C28.59251828 31.68052484 29.93496659 31.17336435 31.27734375 30.66601562 C34.51742878 29.44188195 37.75844142 28.22022716 41 27 C38.06384332 24.06384332 34.36662886 23.15190612 30.52734375 21.77734375 C29.68909561 21.47180069 28.85084747 21.16625763 27.98719788 20.85145569 C25.30584967 19.87485528 22.62188416 18.90572116 19.9375 17.9375 C17.24991117 16.96475061 14.56292651 15.99041148 11.87709045 15.01283264 C10.20439804 14.40434766 8.53061982 13.79883808 6.85569763 13.19651794 C1.11173191 11.11173191 1.11173191 11.11173191 0 10 C-0.07205511 8.31391034 -0.08386068 6.62499341 -0.0625 4.9375 C-0.05347656 4.01839844 -0.04445312 3.09929687 -0.03515625 2.15234375 C-0.02355469 1.44207031 -0.01195312 0.73179687 0 0 Z " fill="#CCCCCD" transform="translate(226,159)"/>
<path d="M0 0 C18.48 0 36.96 0 56 0 C56 1.98 56 3.96 56 6 C37.52 6 19.04 6 0 6 C0 4.02 0 2.04 0 0 Z " fill="#D4D5D5" transform="translate(283,218)"/>
</svg>
